0
SECTION
2
HEADER
9
$EXTMIN
10
0
20
0
9
$EXTMAX
10
7.916667
20
10.416667
0
ENDSEC
0
SECTION
2
TABLES
0
TABLE
2
LTYPE
70
4
0
LTYPE
2
CONTINUOUS
70
64
3
Solid line
72
65
73
0
40
0.0
0
LTYPE
2
DASHED
70
64
3
Dashed line
72
65
73
2
40
0.8
49
0.5
49
-0.3
0
LTYPE
2
DOT
70
64
3
Dotted line
72
65
73
2
40
0.2
49
0.1
49
-0.1
0
LTYPE
2
DASHDOT
70
64
3
Dotted line
72
65
73
4
40
1
49
0.5
49
-0.2
49
0.1
49
-0.2
0
LTYPE
2
SMALLDOT
70
64
3
Small dotted
72
65
73
2
40
0.1
49
0
49
-0.1
0
LTYPE
2
CENTER
70
64
3
Centerline
72
65
73
4
40
1.1
49
0.8
49
-0.1
49
0.1
49
-0.1
0
ENDTAB
0
TABLE
2
LAYER
70
1
0
LAYER
2
LAYER1
70
0
62
7
6
CONTINUOUS
0
ENDTAB
0
TABLE
2
STYLE
100
AcDbSymbolTable
70
2
0
STYLE
2
Standard
3
txt
70
0
40
0.0
41
0
50
0
71
0
42
1.0
0
STYLE
2
Style1
3
romanc.shx
70
0
40
0.0
41
0
50
0
71
0
42
1.0
0
ENDTAB
0
TABLE
2
VIEW
70
0
0
ENDTAB
0
ENDSEC
0
SECTION
2
BLOCKS
0
BLOCK
2
019f9390
70
64
10
0
20
0
30
0
0
TEXT
8
019f9390
10
0.172619
20
0.25496
30
0
40
0.1
1
0
50
90
62
7
0
POLYLINE
8
019f9390
40
0.027778
70
0
41
0.027778
66
1
62
7
0
VERTEX
8
019f9390
10
0.277778
20
0.222222
30
0
0
VERTEX
8
019f9390
10
0.277778
20
0.152778
30
0
0
SEQEND
0
POLYLINE
8
019f9390
40
0.027778
70
0
41
0.027778
66
1
62
7
0
VERTEX
8
019f9390
10
0.208333
20
0.083333
30
0
0
VERTEX
8
019f9390
10
0.208333
20
0.013889
30
0
0
SEQEND
0
POLYLINE
8
019f9390
40
0.027778
70
0
41
0.027778
66
1
62
7
0
VERTEX
8
019f9390
10
0.138889
20
0.222222
30
0
0
VERTEX
8
019f9390
10
0.138889
20
0.152778
30
0
0
SEQEND
0
TEXT
8
019f9390
10
0.325397
20
0.25496
30
0
40
0.1
1
1
50
90
62
7
0
ENDBLK
0
BLOCK
2
01a037e8
70
64
10
0
20
0
30
0
0
POLYLINE
8
01a037e8
40
0.027778
70
0
41
0.027778
66
1
62
7
0
VERTEX
8
01a037e8
10
0
20
0.347222
30
0
0
VERTEX
8
01a037e8
10
0.333333
20
0.347222
30
0
0
SEQEND
0
POLYLINE
8
01a037e8
40
0.027778
70
0
41
0.027778
66
1
62
7
0
VERTEX
8
01a037e8
10
0
20
0.013889
30
0
0
VERTEX
8
01a037e8
10
0.347222
20
0.013889
30
0
0
SEQEND
0
POLYLINE
8
01a037e8
40
0.027778
70
0
41
0.027778
66
1
62
7
0
VERTEX
8
01a037e8
10
0
20
0.347222
30
0
0
VERTEX
8
01a037e8
10
0
20
0.013889
30
0
0
SEQEND
0
POLYLINE
8
01a037e8
70
0
66
1
62
7
0
VERTEX
8
01a037e8
10
0.472222
20
0.173611
30
0
40
0.027778
41
0.027778
62
7
0
VERTEX
8
01a037e8
10
0.470007
20
0.201347
30
0
40
0.027778
41
0.027778
62
7
0
VERTEX
8
01a037e8
10
0.463427
20
0.228239
30
0
40
0.027778
41
0.027778
62
7
0
VERTEX
8
01a037e8
10
0.452684
20
0.253472
30
0
40
0.027778
41
0.027778
62
7
0
VERTEX
8
01a037e8
10
0.438104
20
0.276279
30
0
40
0.027778
41
0.027778
62
7
0
VERTEX
8
01a037e8
10
0.420129
20
0.295965
30
0
40
0.027778
41
0.027778
62
7
0
VERTEX
8
01a037e8
10
0.399306
20
0.311935
30
0
40
0.027778
41
0.027778
62
7
0
VERTEX
8
01a037e8
10
0.376267
20
0.323701
30
0
40
0.027778
41
0.027778
62
7
0
VERTEX
8
01a037e8
10
0.351713
20
0.330907
30
0
40
0.027778
41
0.027778
62
7
0
VERTEX
8
01a037e8
10
0.326389
20
0.333333
30
0
40
0.027778
41
0.027778
62
7
0
SEQEND
0
POLYLINE
8
01a037e8
70
0
66
1
62
7
0
VERTEX
8
01a037e8
10
0.486111
20
0.173611
30
0
40
0.027778
41
0.027778
62
7
0
VERTEX
8
01a037e8
10
0.484145
20
0.20077
30
0
40
0.027778
41
0.027778
62
7
0
VERTEX
8
01a037e8
10
0.478294
20
0.22726
30
0
40
0.027778
41
0.027778
62
7
0
VERTEX
8
01a037e8
10
0.468702
20
0.252429
30
0
40
0.027778
41
0.027778
62
7
0
VERTEX
8
01a037e8
10
0.455607
20
0.275657
30
0
40
0.027778
41
0.027778
62
7
0
VERTEX
8
01a037e8
10
0.43933
20
0.296373
30
0
40
0.027778
41
0.027778
62
7
0
VERTEX
8
01a037e8
10
0.420271
20
0.314065
30
0
40
0.027778
41
0.027778
62
7
0
VERTEX
8
01a037e8
10
0.398901
20
0.3283
30
0
40
0.027778
41
0.027778
62
7
0
VERTEX
8
01a037e8
10
0.375746
20
0.338725
30
0
40
0.027778
41
0.027778
62
7
0
VERTEX
8
01a037e8
10
0.351375
20
0.345085
30
0
40
0.027778
41
0.027778
62
7
0
VERTEX
8
01a037e8
10
0.326389
20
0.347222
30
0
40
0.027778
41
0.027778
62
7
0
SEQEND
0
POLYLINE
8
01a037e8
70
0
66
1
62
7
0
VERTEX
8
01a037e8
10
0.326389
20
0.027778
30
0
40
0.027778
41
0.027778
62
7
0
VERTEX
8
01a037e8
10
0.351713
20
0.030204
30
0
40
0.027778
41
0.027778
62
7
0
VERTEX
8
01a037e8
10
0.376267
20
0.03741
30
0
40
0.027778
41
0.027778
62
7
0
VERTEX
8
01a037e8
10
0.399306
20
0.049176
30
0
40
0.027778
41
0.027778
62
7
0
VERTEX
8
01a037e8
10
0.420129
20
0.065146
30
0
40
0.027778
41
0.027778
62
7
0
VERTEX
8
01a037e8
10
0.438104
20
0.084833
30
0
40
0.027778
41
0.027778
62
7
0
VERTEX
8
01a037e8
10
0.452684
20
0.107639
30
0
40
0.027778
41
0.027778
62
7
0
VERTEX
8
01a037e8
10
0.463427
20
0.132872
30
0
40
0.027778
41
0.027778
62
7
0
VERTEX
8
01a037e8
10
0.470007
20
0.159765
30
0
40
0.027778
41
0.027778
62
7
0
VERTEX
8
01a037e8
10
0.472222
20
0.1875
30
0
40
0.027778
41
0.027778
62
7
0
SEQEND
0
POLYLINE
8
01a037e8
70
0
66
1
62
7
0
VERTEX
8
01a037e8
10
0.326389
20
0.013889
30
0
40
0.027778
41
0.027778
62
7
0
VERTEX
8
01a037e8
10
0.351375
20
0.016026
30
0
40
0.027778
41
0.027778
62
7
0
VERTEX
8
01a037e8
10
0.375746
20
0.022386
30
0
40
0.027778
41
0.027778
62
7
0
VERTEX
8
01a037e8
10
0.398901
20
0.032811
30
0
40
0.027778
41
0.027778
62
7
0
VERTEX
8
01a037e8
10
0.420271
20
0.047046
30
0
40
0.027778
41
0.027778
62
7
0
VERTEX
8
01a037e8
10
0.43933
20
0.064738
30
0
40
0.027778
41
0.027778
62
7
0
VERTEX
8
01a037e8
10
0.455607
20
0.085454
30
0
40
0.027778
41
0.027778
62
7
0
VERTEX
8
01a037e8
10
0.468702
20
0.108682
30
0
40
0.027778
41
0.027778
62
7
0
VERTEX
8
01a037e8
10
0.478294
20
0.133851
30
0
40
0.027778
41
0.027778
62
7
0
VERTEX
8
01a037e8
10
0.484145
20
0.160341
30
0
40
0.027778
41
0.027778
62
7
0
VERTEX
8
01a037e8
10
0.486111
20
0.1875
30
0
40
0.027778
41
0.027778
62
7
0
SEQEND
0
CIRCLE
8
01a037e8
10
-0.041667
20
0.111111
30
0
40
0.027778
39
0
62
7
0
ENDBLK
0
BLOCK
2
019f3978
70
64
10
0
20
0
30
0
0
POLYLINE
8
019f3978
40
0.027778
70
0
41
0.027778
66
1
62
7
0
VERTEX
8
019f3978
10
0
20
0.347222
30
0
0
VERTEX
8
019f3978
10
0.333333
20
0.347222
30
0
0
SEQEND
0
POLYLINE
8
019f3978
40
0.027778
70
0
41
0.027778
66
1
62
7
0
VERTEX
8
019f3978
10
0
20
0.013889
30
0
0
VERTEX
8
019f3978
10
0.347222
20
0.013889
30
0
0
SEQEND
0
POLYLINE
8
019f3978
40
0.027778
70
0
41
0.027778
66
1
62
7
0
VERTEX
8
019f3978
10
0
20
0.347222
30
0
0
VERTEX
8
019f3978
10
0
20
0.013889
30
0
0
SEQEND
0
POLYLINE
8
019f3978
70
0
66
1
62
7
0
VERTEX
8
019f3978
10
0.472222
20
0.173611
30
0
40
0.027778
41
0.027778
62
7
0
VERTEX
8
019f3978
10
0.470007
20
0.201347
30
0
40
0.027778
41
0.027778
62
7
0
VERTEX
8
019f3978
10
0.463427
20
0.228239
30
0
40
0.027778
41
0.027778
62
7
0
VERTEX
8
019f3978
10
0.452684
20
0.253472
30
0
40
0.027778
41
0.027778
62
7
0
VERTEX
8
019f3978
10
0.438104
20
0.276279
30
0
40
0.027778
41
0.027778
62
7
0
VERTEX
8
019f3978
10
0.420129
20
0.295965
30
0
40
0.027778
41
0.027778
62
7
0
VERTEX
8
019f3978
10
0.399306
20
0.311935
30
0
40
0.027778
41
0.027778
62
7
0
VERTEX
8
019f3978
10
0.376267
20
0.323701
30
0
40
0.027778
41
0.027778
62
7
0
VERTEX
8
019f3978
10
0.351713
20
0.330907
30
0
40
0.027778
41
0.027778
62
7
0
VERTEX
8
019f3978
10
0.326389
20
0.333333
30
0
40
0.027778
41
0.027778
62
7
0
SEQEND
0
POLYLINE
8
019f3978
70
0
66
1
62
7
0
VERTEX
8
019f3978
10
0.486111
20
0.173611
30
0
40
0.027778
41
0.027778
62
7
0
VERTEX
8
019f3978
10
0.484145
20
0.20077
30
0
40
0.027778
41
0.027778
62
7
0
VERTEX
8
019f3978
10
0.478294
20
0.22726
30
0
40
0.027778
41
0.027778
62
7
0
VERTEX
8
019f3978
10
0.468702
20
0.252429
30
0
40
0.027778
41
0.027778
62
7
0
VERTEX
8
019f3978
10
0.455607
20
0.275657
30
0
40
0.027778
41
0.027778
62
7
0
VERTEX
8
019f3978
10
0.43933
20
0.296373
30
0
40
0.027778
41
0.027778
62
7
0
VERTEX
8
019f3978
10
0.420271
20
0.314065
30
0
40
0.027778
41
0.027778
62
7
0
VERTEX
8
019f3978
10
0.398901
20
0.3283
30
0
40
0.027778
41
0.027778
62
7
0
VERTEX
8
019f3978
10
0.375746
20
0.338725
30
0
40
0.027778
41
0.027778
62
7
0
VERTEX
8
019f3978
10
0.351375
20
0.345085
30
0
40
0.027778
41
0.027778
62
7
0
VERTEX
8
019f3978
10
0.326389
20
0.347222
30
0
40
0.027778
41
0.027778
62
7
0
SEQEND
0
POLYLINE
8
019f3978
70
0
66
1
62
7
0
VERTEX
8
019f3978
10
0.326389
20
0.027778
30
0
40
0.027778
41
0.027778
62
7
0
VERTEX
8
019f3978
10
0.351713
20
0.030204
30
0
40
0.027778
41
0.027778
62
7
0
VERTEX
8
019f3978
10
0.376267
20
0.03741
30
0
40
0.027778
41
0.027778
62
7
0
VERTEX
8
019f3978
10
0.399306
20
0.049176
30
0
40
0.027778
41
0.027778
62
7
0
VERTEX
8
019f3978
10
0.420129
20
0.065146
30
0
40
0.027778
41
0.027778
62
7
0
VERTEX
8
019f3978
10
0.438104
20
0.084833
30
0
40
0.027778
41
0.027778
62
7
0
VERTEX
8
019f3978
10
0.452684
20
0.107639
30
0
40
0.027778
41
0.027778
62
7
0
VERTEX
8
019f3978
10
0.463427
20
0.132872
30
0
40
0.027778
41
0.027778
62
7
0
VERTEX
8
019f3978
10
0.470007
20
0.159765
30
0
40
0.027778
41
0.027778
62
7
0
VERTEX
8
019f3978
10
0.472222
20
0.1875
30
0
40
0.027778
41
0.027778
62
7
0
SEQEND
0
POLYLINE
8
019f3978
70
0
66
1
62
7
0
VERTEX
8
019f3978
10
0.326389
20
0.013889
30
0
40
0.027778
41
0.027778
62
7
0
VERTEX
8
019f3978
10
0.351375
20
0.016026
30
0
40
0.027778
41
0.027778
62
7
0
VERTEX
8
019f3978
10
0.375746
20
0.022386
30
0
40
0.027778
41
0.027778
62
7
0
VERTEX
8
019f3978
10
0.398901
20
0.032811
30
0
40
0.027778
41
0.027778
62
7
0
VERTEX
8
019f3978
10
0.420271
20
0.047046
30
0
40
0.027778
41
0.027778
62
7
0
VERTEX
8
019f3978
10
0.43933
20
0.064738
30
0
40
0.027778
41
0.027778
62
7
0
VERTEX
8
019f3978
10
0.455607
20
0.085454
30
0
40
0.027778
41
0.027778
62
7
0
VERTEX
8
019f3978
10
0.468702
20
0.108682
30
0
40
0.027778
41
0.027778
62
7
0
VERTEX
8
019f3978
10
0.478294
20
0.133851
30
0
40
0.027778
41
0.027778
62
7
0
VERTEX
8
019f3978
10
0.484145
20
0.160341
30
0
40
0.027778
41
0.027778
62
7
0
VERTEX
8
019f3978
10
0.486111
20
0.1875
30
0
40
0.027778
41
0.027778
62
7
0
SEQEND
0
CIRCLE
8
019f3978
10
-0.041667
20
0.041667
30
0
40
0.027778
39
0
62
7
0
ENDBLK
0
BLOCK
2
01a08ba0
70
64
10
0
20
0
30
0
0
POLYLINE
8
01a08ba0
40
0.027778
70
0
41
0.027778
66
1
62
7
0
VERTEX
8
01a08ba0
10
0
20
0.347222
30
0
0
VERTEX
8
01a08ba0
10
0.333333
20
0.347222
30
0
0
SEQEND
0
POLYLINE
8
01a08ba0
40
0.027778
70
0
41
0.027778
66
1
62
7
0
VERTEX
8
01a08ba0
10
0
20
0.013889
30
0
0
VERTEX
8
01a08ba0
10
0.347222
20
0.013889
30
0
0
SEQEND
0
POLYLINE
8
01a08ba0
40
0.027778
70
0
41
0.027778
66
1
62
7
0
VERTEX
8
01a08ba0
10
0
20
0.347222
30
0
0
VERTEX
8
01a08ba0
10
0
20
0.013889
30
0
0
SEQEND
0
POLYLINE
8
01a08ba0
70
0
66
1
62
7
0
VERTEX
8
01a08ba0
10
0.472222
20
0.173611
30
0
40
0.027778
41
0.027778
62
7
0
VERTEX
8
01a08ba0
10
0.470007
20
0.201347
30
0
40
0.027778
41
0.027778
62
7
0
VERTEX
8
01a08ba0
10
0.463427
20
0.228239
30
0
40
0.027778
41
0.027778
62
7
0
VERTEX
8
01a08ba0
10
0.452684
20
0.253472
30
0
40
0.027778
41
0.027778
62
7
0
VERTEX
8
01a08ba0
10
0.438104
20
0.276279
30
0
40
0.027778
41
0.027778
62
7
0
VERTEX
8
01a08ba0
10
0.420129
20
0.295965
30
0
40
0.027778
41
0.027778
62
7
0
VERTEX
8
01a08ba0
10
0.399306
20
0.311935
30
0
40
0.027778
41
0.027778
62
7
0
VERTEX
8
01a08ba0
10
0.376267
20
0.323701
30
0
40
0.027778
41
0.027778
62
7
0
VERTEX
8
01a08ba0
10
0.351713
20
0.330907
30
0
40
0.027778
41
0.027778
62
7
0
VERTEX
8
01a08ba0
10
0.326389
20
0.333333
30
0
40
0.027778
41
0.027778
62
7
0
SEQEND
0
POLYLINE
8
01a08ba0
70
0
66
1
62
7
0
VERTEX
8
01a08ba0
10
0.486111
20
0.173611
30
0
40
0.027778
41
0.027778
62
7
0
VERTEX
8
01a08ba0
10
0.484145
20
0.20077
30
0
40
0.027778
41
0.027778
62
7
0
VERTEX
8
01a08ba0
10
0.478294
20
0.22726
30
0
40
0.027778
41
0.027778
62
7
0
VERTEX
8
01a08ba0
10
0.468702
20
0.252429
30
0
40
0.027778
41
0.027778
62
7
0
VERTEX
8
01a08ba0
10
0.455607
20
0.275657
30
0
40
0.027778
41
0.027778
62
7
0
VERTEX
8
01a08ba0
10
0.43933
20
0.296373
30
0
40
0.027778
41
0.027778
62
7
0
VERTEX
8
01a08ba0
10
0.420271
20
0.314065
30
0
40
0.027778
41
0.027778
62
7
0
VERTEX
8
01a08ba0
10
0.398901
20
0.3283
30
0
40
0.027778
41
0.027778
62
7
0
VERTEX
8
01a08ba0
10
0.375746
20
0.338725
30
0
40
0.027778
41
0.027778
62
7
0
VERTEX
8
01a08ba0
10
0.351375
20
0.345085
30
0
40
0.027778
41
0.027778
62
7
0
VERTEX
8
01a08ba0
10
0.326389
20
0.347222
30
0
40
0.027778
41
0.027778
62
7
0
SEQEND
0
POLYLINE
8
01a08ba0
70
0
66
1
62
7
0
VERTEX
8
01a08ba0
10
0.326389
20
0.027778
30
0
40
0.027778
41
0.027778
62
7
0
VERTEX
8
01a08ba0
10
0.351713
20
0.030204
30
0
40
0.027778
41
0.027778
62
7
0
VERTEX
8
01a08ba0
10
0.376267
20
0.03741
30
0
40
0.027778
41
0.027778
62
7
0
VERTEX
8
01a08ba0
10
0.399306
20
0.049176
30
0
40
0.027778
41
0.027778
62
7
0
VERTEX
8
01a08ba0
10
0.420129
20
0.065146
30
0
40
0.027778
41
0.027778
62
7
0
VERTEX
8
01a08ba0
10
0.438104
20
0.084833
30
0
40
0.027778
41
0.027778
62
7
0
VERTEX
8
01a08ba0
10
0.452684
20
0.107639
30
0
40
0.027778
41
0.027778
62
7
0
VERTEX
8
01a08ba0
10
0.463427
20
0.132872
30
0
40
0.027778
41
0.027778
62
7
0
VERTEX
8
01a08ba0
10
0.470007
20
0.159765
30
0
40
0.027778
41
0.027778
62
7
0
VERTEX
8
01a08ba0
10
0.472222
20
0.1875
30
0
40
0.027778
41
0.027778
62
7
0
SEQEND
0
POLYLINE
8
01a08ba0
70
0
66
1
62
7
0
VERTEX
8
01a08ba0
10
0.326389
20
0.013889
30
0
40
0.027778
41
0.027778
62
7
0
VERTEX
8
01a08ba0
10
0.351375
20
0.016026
30
0
40
0.027778
41
0.027778
62
7
0
VERTEX
8
01a08ba0
10
0.375746
20
0.022386
30
0
40
0.027778
41
0.027778
62
7
0
VERTEX
8
01a08ba0
10
0.398901
20
0.032811
30
0
40
0.027778
41
0.027778
62
7
0
VERTEX
8
01a08ba0
10
0.420271
20
0.047046
30
0
40
0.027778
41
0.027778
62
7
0
VERTEX
8
01a08ba0
10
0.43933
20
0.064738
30
0
40
0.027778
41
0.027778
62
7
0
VERTEX
8
01a08ba0
10
0.455607
20
0.085454
30
0
40
0.027778
41
0.027778
62
7
0
VERTEX
8
01a08ba0
10
0.468702
20
0.108682
30
0
40
0.027778
41
0.027778
62
7
0
VERTEX
8
01a08ba0
10
0.478294
20
0.133851
30
0
40
0.027778
41
0.027778
62
7
0
VERTEX
8
01a08ba0
10
0.484145
20
0.160341
30
0
40
0.027778
41
0.027778
62
7
0
VERTEX
8
01a08ba0
10
0.486111
20
0.1875
30
0
40
0.027778
41
0.027778
62
7
0
SEQEND
0
CIRCLE
8
01a08ba0
10
-0.041667
20
0.041667
30
0
40
0.027778
39
0
62
7
0
CIRCLE
8
01a08ba0
10
-0.041667
20
0.180556
30
0
40
0.027778
39
0
62
7
0
ENDBLK
0
BLOCK
2
019471f8
70
64
10
0
20
0
30
0
0
POLYLINE
8
019471f8
70
0
66
1
62
7
0
VERTEX
8
019471f8
10
0.527778
20
0.159722
30
0
40
0.027778
41
0.027778
62
7
0
VERTEX
8
019471f8
10
0.526215
20
0.171164
30
0
40
0.027778
41
0.027778
62
7
0
VERTEX
8
019471f8
10
0.521536
20
0.182536
30
0
40
0.027778
41
0.027778
62
7
0
VERTEX
8
019471f8
10
0.513771
20
0.193766
30
0
40
0.027778
41
0.027778
62
7
0
VERTEX
8
019471f8
10
0.502966
20
0.204787
30
0
40
0.027778
41
0.027778
62
7
0
VERTEX
8
019471f8
10
0.489189
20
0.21553
30
0
40
0.027778
41
0.027778
62
7
0
VERTEX
8
019471f8
10
0.472524
20
0.225929
30
0
40
0.027778
41
0.027778
62
7
0
VERTEX
8
019471f8
10
0.453075
20
0.23592
30
0
40
0.027778
41
0.027778
62
7
0
VERTEX
8
019471f8
10
0.43096
20
0.245441
30
0
40
0.027778
41
0.027778
62
7
0
VERTEX
8
019471f8
10
0.406317
20
0.254433
30
0
40
0.027778
41
0.027778
62
7
0
VERTEX
8
019471f8
10
0.379297
20
0.262842
30
0
40
0.027778
41
0.027778
62
7
0
VERTEX
8
019471f8
10
0.350067
20
0.270615
30
0
40
0.027778
41
0.027778
62
7
0
VERTEX
8
019471f8
10
0.318808
20
0.277704
30
0
40
0.027778
41
0.027778
62
7
0
VERTEX
8
019471f8
10
0.285711
20
0.284066
30
0
40
0.027778
41
0.027778
62
7
0
VERTEX
8
019471f8
10
0.250981
20
0.289661
30
0
40
0.027778
41
0.027778
62
7
0
VERTEX
8
019471f8
10
0.214833
20
0.294455
30
0
40
0.027778
41
0.027778
62
7
0
VERTEX
8
019471f8
10
0.177488
20
0.298418
30
0
40
0.027778
41
0.027778
62
7
0
VERTEX
8
019471f8
10
0.139177
20
0.301526
30
0
40
0.027778
41
0.027778
62
7
0
VERTEX
8
019471f8
10
0.100137
20
0.30376
30
0
40
0.027778
41
0.027778
62
7
0
VERTEX
8
019471f8
10
0.060608
20
0.305106
30
0
40
0.027778
41
0.027778
62
7
0
VERTEX
8
019471f8
10
0.020833
20
0.305556
30
0
40
0.027778
41
0.027778
62
7
0
SEQEND
0
POLYLINE
8
019471f8
70
0
66
1
62
7
0
VERTEX
8
019471f8
10
0.541667
20
0.159722
30
0
40
0.027778
41
0.027778
62
7
0
VERTEX
8
019471f8
10
0.54021
20
0.171658
30
0
40
0.027778
41
0.027778
62
7
0
VERTEX
8
019471f8
10
0.535849
20
0.183528
30
0
40
0.027778
41
0.027778
62
7
0
VERTEX
8
019471f8
10
0.528608
20
0.195264
30
0
40
0.027778
41
0.027778
62
7
0
VERTEX
8
019471f8
10
0.518528
20
0.206801
30
0
40
0.027778
41
0.027778
62
7
0
VERTEX
8
019471f8
10
0.505663
20
0.218075
30
0
40
0.027778
41
0.027778
62
7
0
VERTEX
8
019471f8
10
0.490088
20
0.229023
30
0
40
0.027778
41
0.027778
62
7
0
VERTEX
8
019471f8
10
0.471888
20
0.239583
30
0
40
0.027778
41
0.027778
62
7
0
VERTEX
8
019471f8
10
0.451166
20
0.249697
30
0
40
0.027778
41
0.027778
62
7
0
VERTEX
8
019471f8
10
0.428037
20
0.259307
30
0
40
0.027778
41
0.027778
62
7
0
VERTEX
8
019471f8
10
0.402631
20
0.268361
30
0
40
0.027778
41
0.027778
62
7
0
VERTEX
8
019471f8
10
0.37509
20
0.276807
30
0
40
0.027778
41
0.027778
62
7
0
VERTEX
8
019471f8
10
0.345568
20
0.284598
30
0
40
0.027778
41
0.027778
62
7
0
VERTEX
8
019471f8
10
0.314229
20
0.291691
30
0
40
0.027778
41
0.027778
62
7
0
VERTEX
8
019471f8
10
0.28125
20
0.298046
30
0
40
0.027778
41
0.027778
62
7
0
VERTEX
8
019471f8
10
0.246814
20
0.303627
30
0
40
0.027778
41
0.027778
62
7
0
VERTEX
8
019471f8
10
0.211115
20
0.308403
30
0
40
0.027778
41
0.027778
62
7
0
VERTEX
8
019471f8
10
0.174352
20
0.312348
30
0
40
0.027778
41
0.027778
62
7
0
VERTEX
8
019471f8
10
0.13673
20
0.31544
30
0
40
0.027778
41
0.027778
62
7
0
VERTEX
8
019471f8
10
0.098459
20
0.31766
30
0
40
0.027778
41
0.027778
62
7
0
VERTEX
8
019471f8
10
0.059755
20
0.318998
30
0
40
0.027778
41
0.027778
62
7
0
VERTEX
8
019471f8
10
0.020833
20
0.319444
30
0
40
0.027778
41
0.027778
62
7
0
SEQEND
0
POLYLINE
8
019471f8
70
0
66
1
62
7
0
VERTEX
8
019471f8
10
0.048611
20
0.027778
30
0
40
0.027778
41
0.027778
62
7
0
VERTEX
8
019471f8
10
0.08818
20
0.028276
30
0
40
0.027778
41
0.027778
62
7
0
VERTEX
8
019471f8
10
0.127479
20
0.029767
30
0
40
0.027778
41
0.027778
62
7
0
VERTEX
8
019471f8
10
0.16624
20
0.03224
30
0
40
0.027778
41
0.027778
62
7
0
VERTEX
8
019471f8
10
0.204196
20
0.035679
30
0
40
0.027778
41
0.027778
62
7
0
VERTEX
8
019471f8
10
0.24109
20
0.040061
30
0
40
0.027778
41
0.027778
62
7
0
VERTEX
8
019471f8
10
0.276669
20
0.045355
30
0
40
0.027778
41
0.027778
62
7
0
VERTEX
8
019471f8
10
0.31069
20
0.051524
30
0
40
0.027778
41
0.027778
62
7
0
VERTEX
8
019471f8
10
0.342921
20
0.058528
30
0
40
0.027778
41
0.027778
62
7
0
VERTEX
8
019471f8
10
0.373142
20
0.066318
30
0
40
0.027778
41
0.027778
62
7
0
VERTEX
8
019471f8
10
0.401145
20
0.074841
30
0
40
0.027778
41
0.027778
62
7
0
VERTEX
8
019471f8
10
0.426741
20
0.084038
30
0
40
0.027778
41
0.027778
62
7
0
VERTEX
8
019471f8
10
0.449753
20
0.093848
30
0
40
0.027778
41
0.027778
62
7
0
VERTEX
8
019471f8
10
0.470026
20
0.104202
30
0
40
0.027778
41
0.027778
62
7
0
VERTEX
8
019471f8
10
0.487419
20
0.115031
30
0
40
0.027778
41
0.027778
62
7
0
VERTEX
8
019471f8
10
0.501815
20
0.126259
30
0
40
0.027778
41
0.027778
62
7
0
VERTEX
8
019471f8
10
0.513115
20
0.137811
30
0
40
0.027778
41
0.027778
62
7
0
VERTEX
8
019471f8
10
0.521243
20
0.149608
30
0
40
0.027778
41
0.027778
62
7
0
VERTEX
8
019471f8
10
0.526141
20
0.161568
30
0
40
0.027778
41
0.027778
62
7
0
VERTEX
8
019471f8
10
0.527778
20
0.173611
30
0
40
0.027778
41
0.027778
62
7
0
SEQEND
0
POLYLINE
8
019471f8
70
0
66
1
62
7
0
VERTEX
8
019471f8
10
0.048611
20
0.013889
30
0
40
0.027778
41
0.027778
62
7
0
VERTEX
8
019471f8
10
0.087296
20
0.014381
30
0
40
0.027778
41
0.027778
62
7
0
VERTEX
8
019471f8
10
0.125742
20
0.015855
30
0
40
0.027778
41
0.027778
62
7
0
VERTEX
8
019471f8
10
0.163713
20
0.018302
30
0
40
0.027778
41
0.027778
62
7
0
VERTEX
8
019471f8
10
0.200974
20
0.021706
30
0
40
0.027778
41
0.027778
62
7
0
VERTEX
8
019471f8
10
0.237295
20
0.026047
30
0
40
0.027778
41
0.027778
62
7
0
VERTEX
8
019471f8
10
0.272454
20
0.031298
30
0
40
0.027778
41
0.027778
62
7
0
VERTEX
8
019471f8
10
0.306232
20
0.037426
30
0
40
0.027778
41
0.027778
62
7
0
VERTEX
8
019471f8
10
0.338422
20
0.044393
30
0
40
0.027778
41
0.027778
62
7
0
VERTEX
8
019471f8
10
0.368825
20
0.052157
30
0
40
0.027778
41
0.027778
62
7
0
VERTEX
8
019471f8
10
0.397254
20
0.06067
30
0
40
0.027778
41
0.027778
62
7
0
VERTEX
8
019471f8
10
0.423533
20
0.06988
30
0
40
0.027778
41
0.027778
62
7
0
VERTEX
8
019471f8
10
0.447501
20
0.079729
30
0
40
0.027778
41
0.027778
62
7
0
VERTEX
8
019471f8
10
0.46901
20
0.090156
30
0
40
0.027778
41
0.027778
62
7
0
VERTEX
8
019471f8
10
0.487927
20
0.101099
30
0
40
0.027778
41
0.027778
62
7
0
VERTEX
8
019471f8
10
0.504135
20
0.112488
30
0
40
0.027778
41
0.027778
62
7
0
VERTEX
8
019471f8
10
0.517535
20
0.124254
30
0
40
0.027778
41
0.027778
62
7
0
VERTEX
8
019471f8
10
0.528044
20
0.136325
30
0
40
0.027778
41
0.027778
62
7
0
VERTEX
8
019471f8
10
0.535596
20
0.148625
30
0
40
0.027778
41
0.027778
62
7
0
VERTEX
8
019471f8
10
0.540147
20
0.161079
30
0
40
0.027778
41
0.027778
62
7
0
VERTEX
8
019471f8
10
0.541667
20
0.173611
30
0
40
0.027778
41
0.027778
62
7
0
SEQEND
0
POLYLINE
8
019471f8
70
0
66
1
62
7
0
VERTEX
8
019471f8
10
0.020833
20
0.027778
30
0
40
0.027778
41
0.027778
62
7
0
VERTEX
8
019471f8
10
0.03701
20
0.032747
30
0
40
0.027778
41
0.027778
62
7
0
VERTEX
8
019471f8
10
0.052083
20
0.047316
30
0
40
0.027778
41
0.027778
62
7
0
VERTEX
8
019471f8
10
0.065028
20
0.070491
30
0
40
0.027778
41
0.027778
62
7
0
VERTEX
8
019471f8
10
0.07496
20
0.100694
30
0
40
0.027778
41
0.027778
62
7
0
VERTEX
8
019471f8
10
0.081204
20
0.135867
30
0
40
0.027778
41
0.027778
62
7
0
VERTEX
8
019471f8
10
0.083333
20
0.173611
30
0
40
0.027778
41
0.027778
62
7
0
SEQEND
0
POLYLINE
8
019471f8
70
0
66
1
62
7
0
VERTEX
8
019471f8
10
0.020833
20
0.013889
30
0
40
0.027778
41
0.027778
62
7
0
VERTEX
8
019471f8
10
0.037831
20
0.017893
30
0
40
0.027778
41
0.027778
62
7
0
VERTEX
8
019471f8
10
0.053977
20
0.029706
30
0
40
0.027778
41
0.027778
62
7
0
VERTEX
8
019471f8
10
0.068461
20
0.048735
30
0
40
0.027778
41
0.027778
62
7
0
VERTEX
8
019471f8
10
0.080557
20
0.074026
30
0
40
0.027778
41
0.027778
62
7
0
VERTEX
8
019471f8
10
0.089657
20
0.10431
30
0
40
0.027778
41
0.027778
62
7
0
VERTEX
8
019471f8
10
0.095307
20
0.13807
30
0
40
0.027778
41
0.027778
62
7
0
VERTEX
8
019471f8
10
0.097222
20
0.173611
30
0
40
0.027778
41
0.027778
62
7
0
SEQEND
0
POLYLINE
8
019471f8
40
0.027778
70
0
41
0.027778
66
1
62
7
0
VERTEX
8
019471f8
10
0.069444
20
0.166667
30
0
0
VERTEX
8
019471f8
10
0.083333
20
0.166667
30
0
0
SEQEND
0
POLYLINE
8
019471f8
70
0
66
1
62
7
0
VERTEX
8
019471f8
10
0.083333
20
0.173611
30
0
40
0.027778
41
0.027778
62
7
0
VERTEX
8
019471f8
10
0.081204
20
0.207761
30
0
40
0.027778
41
0.027778
62
7
0
VERTEX
8
019471f8
10
0.07496
20
0.239583
30
0
40
0.027778
41
0.027778
62
7
0
VERTEX
8
019471f8
10
0.065028
20
0.26691
30
0
40
0.027778
41
0.027778
62
7
0
VERTEX
8
019471f8
10
0.052083
20
0.287878
30
0
40
0.027778
41
0.027778
62
7
0
VERTEX
8
019471f8
10
0.03701
20
0.30106
30
0
40
0.027778
41
0.027778
62
7
0
VERTEX
8
019471f8
10
0.020833
20
0.305556
30
0
40
0.027778
41
0.027778
62
7
0
SEQEND
0
POLYLINE
8
019471f8
70
0
66
1
62
7
0
VERTEX
8
019471f8
10
0.097222
20
0.173611
30
0
40
0.027778
41
0.027778
62
7
0
VERTEX
8
019471f8
10
0.094619
20
0.211356
30
0
40
0.027778
41
0.027778
62
7
0
VERTEX
8
019471f8
10
0.086988
20
0.246528
30
0
40
0.027778
41
0.027778
62
7
0
VERTEX
8
019471f8
10
0.074848
20
0.276731
30
0
40
0.027778
41
0.027778
62
7
0
VERTEX
8
019471f8
10
0.059028
20
0.299906
30
0
40
0.027778
41
0.027778
62
7
0
VERTEX
8
019471f8
10
0.040604
20
0.314475
30
0
40
0.027778
41
0.027778
62
7
0
VERTEX
8
019471f8
10
0.020833
20
0.319444
30
0
40
0.027778
41
0.027778
62
7
0
SEQEND
0
ENDBLK
0
BLOCK
2
019e9ff0
70
64
10
0
20
0
30
0
0
CIRCLE
8
019e9ff0
10
0.25
20
0.083333
30
0
40
0.027778
39
0
62
7
0
POLYLINE
8
019e9ff0
70
0
66
1
62
7
0
VERTEX
8
019e9ff0
10
0
20
0.152778
30
0
40
0
41
0
62
7
0
VERTEX
8
019e9ff0
10
0
20
0.013889
30
0
40
0
41
0
62
7
0
VERTEX
8
019e9ff0
10
0.208333
20
0.013889
30
0
40
0
41
0
62
7
0
VERTEX
8
019e9ff0
10
0.208333
20
0.152778
30
0
40
0
41
0
62
7
0
VERTEX
8
019e9ff0
10
0
20
0.152778
30
0
40
0
41
0
62
7
0
SEQEND
0
ENDBLK
0
BLOCK
2
019ef9e0
70
64
10
0
20
0
30
0
0
POLYLINE
8
019ef9e0
40
0.027778
70
0
41
0.027778
66
1
62
7
0
VERTEX
8
019ef9e0
10
0.041667
20
0.152778
30
0
0
VERTEX
8
019ef9e0
10
0.236111
20
0.152778
30
0
0
SEQEND
0
POLYLINE
8
019ef9e0
40
0.027778
70
0
41
0.027778
66
1
62
7
0
VERTEX
8
019ef9e0
10
0.069444
20
0.083333
30
0
0
VERTEX
8
019ef9e0
10
0.208333
20
0.083333
30
0
0
SEQEND
0
POLYLINE
8
019ef9e0
40
0.027778
70
0
41
0.027778
66
1
62
7
0
VERTEX
8
019ef9e0
10
0.111111
20
0.013889
30
0
0
VERTEX
8
019ef9e0
10
0.166667
20
0.013889
30
0
0
SEQEND
0
ENDBLK
0
ENDSEC
0
SECTION
2
ENTITIES
0
POLYLINE
8
LAYER1
40
0.027778
70
0
41
0.027778
66
1
62
5
0
VERTEX
8
LAYER1
10
2.083333
20
10.416667
30
0
0
VERTEX
8
LAYER1
10
2.083333
20
10.25
30
0
0
SEQEND
0
POLYLINE
8
LAYER1
40
0.027778
70
0
41
0.027778
66
1
62
5
0
VERTEX
8
LAYER1
10
2.083333
20
0.000992
30
0
0
VERTEX
8
LAYER1
10
2.083333
20
0.166667
30
0
0
SEQEND
0
TEXT
8
LAYER1
10
0.997024
20
10.272818
30
0
40
0.111111
1
A
50
0
62
5
0
TEXT
8
LAYER1
10
0.997024
20
0.036706
30
0
40
0.111111
1
A
50
0
62
5
0
POLYLINE
8
LAYER1
40
0.027778
70
0
41
0.027778
66
1
62
5
0
VERTEX
8
LAYER1
10
4.166667
20
10.416667
30
0
0
VERTEX
8
LAYER1
10
4.166667
20
10.25
30
0
0
SEQEND
0
POLYLINE
8
LAYER1
40
0.027778
70
0
41
0.027778
66
1
62
5
0
VERTEX
8
LAYER1
10
4.166667
20
0.000992
30
0
0
VERTEX
8
LAYER1
10
4.166667
20
0.166667
30
0
0
SEQEND
0
TEXT
8
LAYER1
10
3.080357
20
10.272818
30
0
40
0.111111
1
B
50
0
62
5
0
TEXT
8
LAYER1
10
3.080357
20
0.036706
30
0
40
0.111111
1
B
50
0
62
5
0
POLYLINE
8
LAYER1
40
0.027778
70
0
41
0.027778
66
1
62
5
0
VERTEX
8
LAYER1
10
6.25
20
10.416667
30
0
0
VERTEX
8
LAYER1
10
6.25
20
10.25
30
0
0
SEQEND
0
POLYLINE
8
LAYER1
40
0.027778
70
0
41
0.027778
66
1
62
5
0
VERTEX
8
LAYER1
10
6.25
20
0.000992
30
0
0
VERTEX
8
LAYER1
10
6.25
20
0.166667
30
0
0
SEQEND
0
TEXT
8
LAYER1
10
5.158731
20
10.272818
30
0
40
0.111111
1
C
50
0
62
5
0
TEXT
8
LAYER1
10
5.158731
20
0.036706
30
0
40
0.111111
1
C
50
0
62
5
0
TEXT
8
LAYER1
10
7.242064
20
10.272818
30
0
40
0.111111
1
D
50
0
62
5
0
TEXT
8
LAYER1
10
7.242064
20
0.036706
30
0
40
0.111111
1
D
50
0
62
5
0
POLYLINE
8
LAYER1
40
0.027778
70
0
41
0.027778
66
1
62
5
0
VERTEX
8
LAYER1
10
0
20
8.333333
30
0
0
VERTEX
8
LAYER1
10
0.166667
20
8.333333
30
0
0
SEQEND
0
POLYLINE
8
LAYER1
40
0.027778
70
0
41
0.027778
66
1
62
5
0
VERTEX
8
LAYER1
10
7.915675
20
8.333333
30
0
0
VERTEX
8
LAYER1
10
7.75
20
8.333333
30
0
0
SEQEND
0
TEXT
8
LAYER1
10
0.060516
20
9.328374
30
0
40
0.111111
1
1
50
0
62
5
0
TEXT
8
LAYER1
10
7.796628
20
9.328374
30
0
40
0.111111
1
1
50
0
62
5
0
POLYLINE
8
LAYER1
40
0.027778
70
0
41
0.027778
66
1
62
5
0
VERTEX
8
LAYER1
10
0
20
6.25
30
0
0
VERTEX
8
LAYER1
10
0.166667
20
6.25
30
0
0
SEQEND
0
POLYLINE
8
LAYER1
40
0.027778
70
0
41
0.027778
66
1
62
5
0
VERTEX
8
LAYER1
10
7.915675
20
6.25
30
0
0
VERTEX
8
LAYER1
10
7.75
20
6.25
30
0
0
SEQEND
0
TEXT
8
LAYER1
10
0.060516
20
7.24504
30
0
40
0.111111
1
2
50
0
62
5
0
TEXT
8
LAYER1
10
7.796628
20
7.24504
30
0
40
0.111111
1
2
50
0
62
5
0
POLYLINE
8
LAYER1
40
0.027778
70
0
41
0.027778
66
1
62
5
0
VERTEX
8
LAYER1
10
0
20
4.166667
30
0
0
VERTEX
8
LAYER1
10
0.166667
20
4.166667
30
0
0
SEQEND
0
POLYLINE
8
LAYER1
40
0.027778
70
0
41
0.027778
66
1
62
5
0
VERTEX
8
LAYER1
10
7.915675
20
4.166667
30
0
0
VERTEX
8
LAYER1
10
7.75
20
4.166667
30
0
0
SEQEND
0
TEXT
8
LAYER1
10
0.060516
20
5.161706
30
0
40
0.111111
1
3
50
0
62
5
0
TEXT
8
LAYER1
10
7.796628
20
5.161706
30
0
40
0.111111
1
3
50
0
62
5
0
POLYLINE
8
LAYER1
40
0.027778
70
0
41
0.027778
66
1
62
5
0
VERTEX
8
LAYER1
10
0
20
2.083333
30
0
0
VERTEX
8
LAYER1
10
0.166667
20
2.083333
30
0
0
SEQEND
0
POLYLINE
8
LAYER1
40
0.027778
70
0
41
0.027778
66
1
62
5
0
VERTEX
8
LAYER1
10
7.915675
20
2.083333
30
0
0
VERTEX
8
LAYER1
10
7.75
20
2.083333
30
0
0
SEQEND
0
TEXT
8
LAYER1
10
0.060516
20
3.078373
30
0
40
0.111111
1
4
50
0
62
5
0
TEXT
8
LAYER1
10
7.796628
20
3.078373
30
0
40
0.111111
1
4
50
0
62
5
0
TEXT
8
LAYER1
10
0.060516
20
1.073413
30
0
40
0.111111
1
5
50
0
62
5
0
TEXT
8
LAYER1
10
7.796628
20
1.073413
30
0
40
0.111111
1
5
50
0
62
5
0
POLYLINE
8
LAYER1
40
0.055556
70
0
41
0.055556
66
1
62
5
0
VERTEX
8
LAYER1
10
0
20
10.416667
30
0
0
VERTEX
8
LAYER1
10
7.916667
20
10.416667
30
0
0
SEQEND
0
POLYLINE
8
LAYER1
40
0.055556
70
0
41
0.055556
66
1
62
5
0
VERTEX
8
LAYER1
10
0
20
0
30
0
0
VERTEX
8
LAYER1
10
7.916667
20
0
30
0
0
SEQEND
0
POLYLINE
8
LAYER1
40
0.055556
70
0
41
0.055556
66
1
62
5
0
VERTEX
8
LAYER1
10
0
20
10.416667
30
0
0
VERTEX
8
LAYER1
10
0
20
0
30
0
0
SEQEND
0
POLYLINE
8
LAYER1
40
0.055556
70
0
41
0.055556
66
1
62
5
0
VERTEX
8
LAYER1
10
7.916667
20
10.416667
30
0
0
VERTEX
8
LAYER1
10
7.916667
20
0
30
0
0
SEQEND
0
POLYLINE
8
LAYER1
40
0.027778
70
0
41
0.027778
66
1
62
5
0
VERTEX
8
LAYER1
10
0
20
10.416667
30
0
0
VERTEX
8
LAYER1
10
0.166667
20
10.25
30
0
0
SEQEND
0
POLYLINE
8
LAYER1
40
0.027778
70
0
41
0.027778
66
1
62
5
0
VERTEX
8
LAYER1
10
0
20
0
30
0
0
VERTEX
8
LAYER1
10
0.166667
20
0.166667
30
0
0
SEQEND
0
POLYLINE
8
LAYER1
40
0.027778
70
0
41
0.027778
66
1
62
5
0
VERTEX
8
LAYER1
10
7.916667
20
0
30
0
0
VERTEX
8
LAYER1
10
7.75
20
0.166667
30
0
0
SEQEND
0
POLYLINE
8
LAYER1
40
0.027778
70
0
41
0.027778
66
1
62
5
0
VERTEX
8
LAYER1
10
7.916667
20
10.416667
30
0
0
VERTEX
8
LAYER1
10
7.75
20
10.25
30
0
0
SEQEND
0
POLYLINE
8
LAYER1
40
0.027778
70
0
41
0.027778
66
1
62
5
0
VERTEX
8
LAYER1
10
0.166667
20
10.25
30
0
0
VERTEX
8
LAYER1
10
7.75
20
10.25
30
0
0
SEQEND
0
POLYLINE
8
LAYER1
40
0.027778
70
0
41
0.027778
66
1
62
5
0
VERTEX
8
LAYER1
10
0.166667
20
0.166667
30
0
0
VERTEX
8
LAYER1
10
7.75
20
0.166667
30
0
0
SEQEND
0
POLYLINE
8
LAYER1
40
0.027778
70
0
41
0.027778
66
1
62
5
0
VERTEX
8
LAYER1
10
0.166667
20
10.25
30
0
0
VERTEX
8
LAYER1
10
0.166667
20
0.166667
30
0
0
SEQEND
0
POLYLINE
8
LAYER1
40
0.027778
70
0
41
0.027778
66
1
62
5
0
VERTEX
8
LAYER1
10
7.75
20
10.25
30
0
0
VERTEX
8
LAYER1
10
7.75
20
0.166667
30
0
0
SEQEND
0
INSERT
2
019f9390
8
LAYER1
10
3.263889
20
9.569445
30
0
50
0
41
1
42
1
0
POLYLINE
8
LAYER1
40
0.027778
70
0
41
0.027778
66
1
62
7
0
VERTEX
8
LAYER1
10
3.472222
20
9.652778
30
0
0
VERTEX
8
LAYER1
10
3.541667
20
9.722222
30
0
0
SEQEND
0
POLYLINE
8
LAYER1
40
0.027778
70
0
41
0.027778
66
1
62
7
0
VERTEX
8
LAYER1
10
3.472222
20
9.652778
30
0
0
VERTEX
8
LAYER1
10
3.402778
20
9.722222
30
0
0
SEQEND
0
INSERT
2
019f9390
8
LAYER1
10
2.569445
20
9.569445
30
0
50
0
41
1
42
1
0
POLYLINE
8
LAYER1
40
0.027778
70
0
41
0.027778
66
1
62
7
0
VERTEX
8
LAYER1
10
2.777778
20
9.652778
30
0
0
VERTEX
8
LAYER1
10
2.847222
20
9.722222
30
0
0
SEQEND
0
POLYLINE
8
LAYER1
40
0.027778
70
0
41
0.027778
66
1
62
7
0
VERTEX
8
LAYER1
10
2.777778
20
9.652778
30
0
0
VERTEX
8
LAYER1
10
2.708333
20
9.722222
30
0
0
SEQEND
0
INSERT
2
019f9390
8
LAYER1
10
1.875
20
9.569445
30
0
50
0
41
1
42
1
0
POLYLINE
8
LAYER1
40
0.027778
70
0
41
0.027778
66
1
62
7
0
VERTEX
8
LAYER1
10
2.083333
20
9.652778
30
0
0
VERTEX
8
LAYER1
10
2.152778
20
9.722222
30
0
0
SEQEND
0
POLYLINE
8
LAYER1
40
0.027778
70
0
41
0.027778
66
1
62
7
0
VERTEX
8
LAYER1
10
2.083333
20
9.652778
30
0
0
VERTEX
8
LAYER1
10
2.013889
20
9.722222
30
0
0
SEQEND
0
INSERT
2
019f9390
8
LAYER1
10
1.180556
20
9.569445
30
0
50
0
41
1
42
1
0
POLYLINE
8
LAYER1
40
0.027778
70
0
41
0.027778
66
1
62
7
0
VERTEX
8
LAYER1
10
1.388889
20
9.652778
30
0
0
VERTEX
8
LAYER1
10
1.458333
20
9.722222
30
0
0
SEQEND
0
POLYLINE
8
LAYER1
40
0.027778
70
0
41
0.027778
66
1
62
7
0
VERTEX
8
LAYER1
10
1.388889
20
9.652778
30
0
0
VERTEX
8
LAYER1
10
1.319444
20
9.722222
30
0
0
SEQEND
0
INSERT
2
01a037e8
8
LAYER1
10
3.888889
20
8.847222
30
0
50
0
41
1
42
1
0
TEXT
8
LAYER1
10
3.964286
20
9.281747
30
0
40
0.111111
1
DEV1
50
0
62
6
0
INSERT
2
019f3978
8
LAYER1
10
3.888889
20
7.458334
30
0
50
0
41
1
42
1
0
TEXT
8
LAYER1
10
3.964286
20
7.892858
30
0
40
0.111111
1
DEV3
50
0
62
6
0
INSERT
2
01a08ba0
8
LAYER1
10
3.888889
20
8.152779
30
0
50
0
41
1
42
1
0
TEXT
8
LAYER1
10
3.964286
20
8.587302
30
0
40
0.111111
1
DEV2
50
0
62
6
0
INSERT
2
019471f8
8
LAYER1
10
5.208333
20
8.166667
30
0
50
0
41
1
42
1
0
TEXT
8
LAYER1
10
5.311508
20
8.587302
30
0
40
0.111111
1
DEV4
50
0
62
6
0
INSERT
2
019e9ff0
8
LAYER1
10
6.041667
20
8.25
30
0
50
0
41
1
42
1
0
POLYLINE
8
LAYER1
70
0
66
1
62
3
0
VERTEX
8
LAYER1
10
6.069445
20
8.375001
30
0
40
0
41
0
62
3
0
VERTEX
8
LAYER1
10
6.069445
20
8.277779
30
0
40
0
41
0
62
3
0
VERTEX
8
LAYER1
10
6.236112
20
8.277779
30
0
40
0
41
0
62
3
0
VERTEX
8
LAYER1
10
6.236112
20
8.375001
30
0
40
0
41
0
62
3
0
VERTEX
8
LAYER1
10
6.069445
20
8.375001
30
0
40
0
41
0
62
3
0
SEQEND
0
INSERT
2
019ef9e0
8
LAYER1
10
6.319445
20
8.041667
30
0
50
0
41
1
42
1
0
POLYLINE
8
LAYER1
40
0.027778
70
0
41
0.027778
66
1
62
1
0
VERTEX
8
LAYER1
10
3.472222
20
7.5
30
0
0
VERTEX
8
LAYER1
10
3.75
20
7.5
30
0
0
SEQEND
0
POLYLINE
8
LAYER1
40
0.027778
70
0
41
0.027778
66
1
62
1
0
VERTEX
8
LAYER1
10
3.472222
20
8.194445
30
0
0
VERTEX
8
LAYER1
10
3.472222
20
7.5
30
0
0
SEQEND
0
CIRCLE
8
LAYER1
10
3.472222
20
8.194445
30
0
40
0.027778
39
0
62
1
0
POLYLINE
8
LAYER1
40
0.027778
70
0
41
0.027778
66
1
62
1
0
VERTEX
8
LAYER1
10
3.472222
20
8.194445
30
0
0
VERTEX
8
LAYER1
10
3.75
20
8.194445
30
0
0
SEQEND
0
POLYLINE
8
LAYER1
40
0.027778
70
0
41
0.027778
66
1
62
1
0
VERTEX
8
LAYER1
10
3.472222
20
9.444445
30
0
0
VERTEX
8
LAYER1
10
3.472222
20
8.194445
30
0
0
SEQEND
0
POLYLINE
8
LAYER1
40
0.027778
70
0
41
0.027778
66
1
62
7
0
VERTEX
8
LAYER1
10
3.472222
20
9.583333
30
0
0
VERTEX
8
LAYER1
10
3.472222
20
9.444445
30
0
0
SEQEND
0
POLYLINE
8
LAYER1
40
0.027778
70
0
41
0.027778
66
1
62
7
0
VERTEX
8
LAYER1
10
3.75
20
8.194445
30
0
0
VERTEX
8
LAYER1
10
3.819444
20
8.194445
30
0
0
SEQEND
0
POLYLINE
8
LAYER1
40
0.027778
70
0
41
0.027778
66
1
62
7
0
VERTEX
8
LAYER1
10
3.75
20
7.5
30
0
0
VERTEX
8
LAYER1
10
3.819444
20
7.5
30
0
0
SEQEND
0
POLYLINE
8
LAYER1
40
0.027778
70
0
41
0.027778
66
1
62
1
0
VERTEX
8
LAYER1
10
2.777778
20
8.333333
30
0
0
VERTEX
8
LAYER1
10
3.75
20
8.333333
30
0
0
SEQEND
0
POLYLINE
8
LAYER1
40
0.027778
70
0
41
0.027778
66
1
62
1
0
VERTEX
8
LAYER1
10
2.777778
20
8.958333
30
0
0
VERTEX
8
LAYER1
10
2.777778
20
8.333333
30
0
0
SEQEND
0
CIRCLE
8
LAYER1
10
2.777778
20
8.958334
30
0
40
0.027778
39
0
62
1
0
POLYLINE
8
LAYER1
40
0.027778
70
0
41
0.027778
66
1
62
7
0
VERTEX
8
LAYER1
10
2.777778
20
9.583333
30
0
0
VERTEX
8
LAYER1
10
2.777778
20
9.444445
30
0
0
SEQEND
0
POLYLINE
8
LAYER1
40
0.027778
70
0
41
0.027778
66
1
62
7
0
VERTEX
8
LAYER1
10
3.75
20
8.958333
30
0
0
VERTEX
8
LAYER1
10
3.819444
20
8.958333
30
0
0
SEQEND
0
POLYLINE
8
LAYER1
40
0.027778
70
0
41
0.027778
66
1
62
1
0
VERTEX
8
LAYER1
10
2.777778
20
8.958333
30
0
0
VERTEX
8
LAYER1
10
3.75
20
8.958333
30
0
0
SEQEND
0
POLYLINE
8
LAYER1
40
0.027778
70
0
41
0.027778
66
1
62
1
0
VERTEX
8
LAYER1
10
2.777778
20
9.444445
30
0
0
VERTEX
8
LAYER1
10
2.777778
20
8.958333
30
0
0
SEQEND
0
POLYLINE
8
LAYER1
40
0.027778
70
0
41
0.027778
66
1
62
7
0
VERTEX
8
LAYER1
10
3.75
20
8.333333
30
0
0
VERTEX
8
LAYER1
10
3.819444
20
8.333333
30
0
0
SEQEND
0
POLYLINE
8
LAYER1
40
0.027778
70
0
41
0.027778
66
1
62
1
0
VERTEX
8
LAYER1
10
2.083333
20
7.638889
30
0
0
VERTEX
8
LAYER1
10
3.75
20
7.638889
30
0
0
SEQEND
0
POLYLINE
8
LAYER1
40
0.027778
70
0
41
0.027778
66
1
62
1
0
VERTEX
8
LAYER1
10
2.083333
20
8.472222
30
0
0
VERTEX
8
LAYER1
10
2.083333
20
7.638889
30
0
0
SEQEND
0
CIRCLE
8
LAYER1
10
2.083333
20
8.472222
30
0
40
0.027778
39
0
62
1
0
POLYLINE
8
LAYER1
40
0.027778
70
0
41
0.027778
66
1
62
1
0
VERTEX
8
LAYER1
10
2.083333
20
8.472222
30
0
0
VERTEX
8
LAYER1
10
3.75
20
8.472222
30
0
0
SEQEND
0
POLYLINE
8
LAYER1
40
0.027778
70
0
41
0.027778
66
1
62
1
0
VERTEX
8
LAYER1
10
2.083333
20
9.444445
30
0
0
VERTEX
8
LAYER1
10
2.083333
20
8.472222
30
0
0
SEQEND
0
POLYLINE
8
LAYER1
40
0.027778
70
0
41
0.027778
66
1
62
7
0
VERTEX
8
LAYER1
10
2.083333
20
9.583333
30
0
0
VERTEX
8
LAYER1
10
2.083333
20
9.444445
30
0
0
SEQEND
0
POLYLINE
8
LAYER1
40
0.027778
70
0
41
0.027778
66
1
62
7
0
VERTEX
8
LAYER1
10
3.75
20
8.472222
30
0
0
VERTEX
8
LAYER1
10
3.888889
20
8.472222
30
0
0
SEQEND
0
POLYLINE
8
LAYER1
40
0.027778
70
0
41
0.027778
66
1
62
7
0
VERTEX
8
LAYER1
10
3.75
20
7.638889
30
0
0
VERTEX
8
LAYER1
10
3.888889
20
7.638889
30
0
0
SEQEND
0
POLYLINE
8
LAYER1
40
0.027778
70
0
41
0.027778
66
1
62
1
0
VERTEX
8
LAYER1
10
1.388889
20
7.777778
30
0
0
VERTEX
8
LAYER1
10
3.75
20
7.777778
30
0
0
SEQEND
0
POLYLINE
8
LAYER1
40
0.027778
70
0
41
0.027778
66
1
62
1
0
VERTEX
8
LAYER1
10
1.388889
20
9.097222
30
0
0
VERTEX
8
LAYER1
10
1.388889
20
7.777778
30
0
0
SEQEND
0
CIRCLE
8
LAYER1
10
1.388889
20
9.097222
30
0
40
0.027778
39
0
62
1
0
POLYLINE
8
LAYER1
40
0.027778
70
0
41
0.027778
66
1
62
1
0
VERTEX
8
LAYER1
10
1.388889
20
9.097222
30
0
0
VERTEX
8
LAYER1
10
3.75
20
9.097222
30
0
0
SEQEND
0
POLYLINE
8
LAYER1
40
0.027778
70
0
41
0.027778
66
1
62
1
0
VERTEX
8
LAYER1
10
1.388889
20
9.444445
30
0
0
VERTEX
8
LAYER1
10
1.388889
20
9.097222
30
0
0
SEQEND
0
POLYLINE
8
LAYER1
40
0.027778
70
0
41
0.027778
66
1
62
7
0
VERTEX
8
LAYER1
10
1.388889
20
9.583333
30
0
0
VERTEX
8
LAYER1
10
1.388889
20
9.444445
30
0
0
SEQEND
0
POLYLINE
8
LAYER1
40
0.027778
70
0
41
0.027778
66
1
62
7
0
VERTEX
8
LAYER1
10
3.75
20
9.097222
30
0
0
VERTEX
8
LAYER1
10
3.888889
20
9.097222
30
0
0
SEQEND
0
POLYLINE
8
LAYER1
40
0.027778
70
0
41
0.027778
66
1
62
7
0
VERTEX
8
LAYER1
10
3.75
20
7.777778
30
0
0
VERTEX
8
LAYER1
10
3.888889
20
7.777778
30
0
0
SEQEND
0
POLYLINE
8
LAYER1
40
0.027778
70
0
41
0.027778
66
1
62
1
0
VERTEX
8
LAYER1
10
5.138889
20
9.027778
30
0
0
VERTEX
8
LAYER1
10
5.138889
20
8.472222
30
0
0
SEQEND
0
POLYLINE
8
LAYER1
40
0.027778
70
0
41
0.027778
66
1
62
1
0
VERTEX
8
LAYER1
10
4.513889
20
9.027778
30
0
0
VERTEX
8
LAYER1
10
5.138889
20
9.027778
30
0
0
SEQEND
0
POLYLINE
8
LAYER1
40
0.027778
70
0
41
0.027778
66
1
62
7
0
VERTEX
8
LAYER1
10
4.375
20
9.027778
30
0
0
VERTEX
8
LAYER1
10
4.513889
20
9.027778
30
0
0
SEQEND
0
POLYLINE
8
LAYER1
40
0.027778
70
0
41
0.027778
66
1
62
7
0
VERTEX
8
LAYER1
10
5.138889
20
8.472222
30
0
0
VERTEX
8
LAYER1
10
5.277778
20
8.472222
30
0
0
SEQEND
0
POLYLINE
8
LAYER1
40
0.027778
70
0
41
0.027778
66
1
62
1
0
VERTEX
8
LAYER1
10
5.138889
20
8.194445
30
0
0
VERTEX
8
LAYER1
10
5.138889
20
7.638889
30
0
0
SEQEND
0
POLYLINE
8
LAYER1
40
0.027778
70
0
41
0.027778
66
1
62
1
0
VERTEX
8
LAYER1
10
4.513889
20
7.638889
30
0
0
VERTEX
8
LAYER1
10
5.138889
20
7.638889
30
0
0
SEQEND
0
POLYLINE
8
LAYER1
40
0.027778
70
0
41
0.027778
66
1
62
7
0
VERTEX
8
LAYER1
10
4.375
20
7.638889
30
0
0
VERTEX
8
LAYER1
10
4.513889
20
7.638889
30
0
0
SEQEND
0
POLYLINE
8
LAYER1
40
0.027778
70
0
41
0.027778
66
1
62
7
0
VERTEX
8
LAYER1
10
5.138889
20
8.194445
30
0
0
VERTEX
8
LAYER1
10
5.277778
20
8.194445
30
0
0
SEQEND
0
POLYLINE
8
LAYER1
40
0.027778
70
0
41
0.027778
66
1
62
1
0
VERTEX
8
LAYER1
10
4.513889
20
8.333333
30
0
0
VERTEX
8
LAYER1
10
5.138889
20
8.333333
30
0
0
SEQEND
0
POLYLINE
8
LAYER1
40
0.027778
70
0
41
0.027778
66
1
62
7
0
VERTEX
8
LAYER1
10
4.375
20
8.333333
30
0
0
VERTEX
8
LAYER1
10
4.513889
20
8.333333
30
0
0
SEQEND
0
POLYLINE
8
LAYER1
40
0.027778
70
0
41
0.027778
66
1
62
7
0
VERTEX
8
LAYER1
10
5.138889
20
8.333333
30
0
0
VERTEX
8
LAYER1
10
5.277778
20
8.333333
30
0
0
SEQEND
0
POLYLINE
8
LAYER1
40
0.027778
70
0
41
0.027778
66
1
62
7
0
VERTEX
8
LAYER1
10
5.763889
20
8.333333
30
0
0
VERTEX
8
LAYER1
10
5.902778
20
8.333333
30
0
0
SEQEND
0
POLYLINE
8
LAYER1
40
0.027778
70
0
41
0.027778
66
1
62
7
0
VERTEX
8
LAYER1
10
5.902778
20
8.333333
30
0
0
VERTEX
8
LAYER1
10
6.041667
20
8.333333
30
0
0
SEQEND
0
POLYLINE
8
LAYER1
40
0.027778
70
0
41
0.027778
66
1
62
7
0
VERTEX
8
LAYER1
10
6.319445
20
8.333333
30
0
0
VERTEX
8
LAYER1
10
6.458333
20
8.333333
30
0
0
SEQEND
0
POLYLINE
8
LAYER1
40
0.027778
70
0
41
0.027778
66
1
62
7
0
VERTEX
8
LAYER1
10
6.458333
20
8.333333
30
0
0
VERTEX
8
LAYER1
10
6.458333
20
8.194445
30
0
0
SEQEND
0
ENDSEC
0
EOF
